<?xml version="1.0" encoding="utf-8"?>
<!-- Generator: Adobe Illustrator 16.0.0, SVG Export Plug-In . SVG Version: 6.00 Build 0)  -->
<!DOCTYPE svg PUBLIC "-//W3C//DTD SVG 1.1//EN" "http://www.w3.org/Graphics/SVG/1.1/DTD/svg11.dtd">
<svg version="1.1" xmlns="http://www.w3.org/2000/svg" xmlns:xlink="http://www.w3.org/1999/xlink" x="0px" y="0px" width="400px"
	 height="100px" viewBox="0.0002441 0 400 100" enable-background="new 0.0002441 0 400 100" xml:space="preserve">
<g id="Capa_2_1_" display="none">
	<linearGradient id="SVGID_1_" gradientUnits="userSpaceOnUse" x1="-0.4997559" y1="51.203125" x2="400.5002441" y2="51.203125">
		<stop  offset="0" style="stop-color:#FFFFFF"/>
		<stop  offset="1" style="stop-color:#000000"/>
	</linearGradient>
	
		<rect x="0.0002441" y="1.4760742" display="inline" stroke="url(#SVGID_1_)" stroke-miterlimit="10" width="400" height="99.4536133"/>
</g>
<g id="Capa_3">
	<g>
		<g>
			<g>
				<path fill="#FFFFFF" stroke="#FFFFFF" stroke-width="2" stroke-miterlimit="10" d="M43.8239746,2.2373047
					c20.4443359,0,27.484375,15.3813477,27.484375,25.0732422c0,9.8847656-7.2329102,25.0732422-27.484375,25.0732422H24.7780762
					v19.7695313c0,1.3984375,0.6269531,2.6513672,7.2324219,2.6513672h1.6875v0.7236328H14.4108887v-0.7236328h1.9287109
					c6.605957,0,7.2329102-1.2529297,7.2329102-2.6513672V5.371582c0-1.4946289-0.8676758-2.4111328-7.2329102-2.4111328h-1.9287109
					V2.2373047H43.8239746z M43.6794434,51.4199219c19.6728516,0,26.4233398-14.6103516,26.4233398-24.109375
					c0-9.3061523-6.5576172-24.1088867-26.4233398-24.1088867H24.7780762v48.2182617H43.6794434z"/>
				<path fill="#FFFFFF" stroke="#FFFFFF" stroke-width="2" stroke-miterlimit="10" d="M114.4626465,40.7631836v23.434082
					l0.7714844,4.5800781c0.6748047,4.0507813,1.5913086,5.7382813,2.9414063,5.7871094l5.1591797-0.4824219l0.0966797,0.9638672
					l-5.2558594,0.7236328h-0.0483398c-2.362793,0-3.4716797-2.8935547-4.0986328-6.7988281
					c-0.2407227-1.4951172-0.7714844-4.3398438-0.7714844-4.7255859v-1.0605469
					c0-0.8681641-0.1445313-1.3017578-0.3374023-1.3017578s-0.434082,0.3378906-0.7231445,1.0126953
					c-3.3271484,7.1357422-10.5117188,12.8740234-19.190918,12.8740234c-10.8969727,0-18.8046875-5.3525391-18.8046875-12.7773438
					c0-9.2578125,8.9199219-12.4892578,18.7568359-13.5014648c5.9785156-0.6269531,18.2744141-1.0610352,20.0585938-6.8950195
					c0.1445313-0.5302734,0.2407227-1.0610352,0.2407227-1.5429688v-0.2895508
					c-0.0483398-8.4379883-5.9790039-14.6582031-14.5131836-14.6582031c-9.6435547,0-17.4550781,4.2915039-17.4550781,9.5952148
					c0,0.6269531-0.3857422,1.0126953-1.0126953,1.0126953s-1.0126953-0.3857422-1.0126953-1.0126953
					c0-5.8339844,8.6796875-10.5595703,19.3354492-10.5595703C107.8083496,25.140625,114.4626465,31.6982422,114.4626465,40.7631836
					z M93.0539551,50.4550781c-9.7397461,1.0126953-17.6479492,4.0986328-17.6479492,12.5371094
					c0,6.8466797,7.3774414,11.8125,17.5996094,11.8125c11.4277344,0,20.2514648-10.5107422,20.2514648-20.7333984v-9.6914063
					C110.0266113,49.7319336,98.3581543,49.9248047,93.0539551,50.4550781z"/>
				<path fill="#FFFFFF" stroke="#FFFFFF" stroke-width="2" stroke-miterlimit="10" d="M161.0881348,33.5307617
					c-0.7231445,0-1.2055664-0.4824219-1.2055664-1.1572266c0-3.7128906-1.5429688-6.2685547-5.5932617-6.2685547
					c-9.6918945,0-16.9243164,10.6079102-16.9243164,22.6625977v23.3857422c0,1.3984375,0.6269531,2.6513672,7.2324219,2.6513672
					h2.6523438v0.7236328h-20.2519531v-0.7236328h1.9287109c6.605957,0,7.2329102-1.2529297,7.2329102-2.6513672v-43.637207
					c0-1.7841797-1.3500977-2.4111328-5.0629883-2.4111328h-1.2050781v-0.7231445h1.2050781l6.2685547-0.1445313v15.9116211
					c2.3144531-8.9682617,8.6791992-16.0083008,16.9243164-16.0083008c4.484375,0,8.0043945,2.9414063,8.0043945,7.2329102
					C162.2937012,33.0483398,161.8112793,33.5307617,161.0881348,33.5307617z"/>
				<path fill="#FFFFFF" stroke="#FFFFFF" stroke-width="2" stroke-miterlimit="10" d="M166.5354004,26.3461914h4.3393555
					c4.1953125,0,4.8222656-0.8198242,4.8222656-5.9306641v-8.534668h0.9638672v12.8261719
					c0,1.0605469,0.434082,1.6391602,1.7363281,1.6391602h22.8549805v0.9643555h-22.8549805
					c-1.3022461,0-1.7363281,0.6269531-1.7363281,1.6875v27.7255859c0,10.5107422,5.3041992,18.0810547,12.5849609,18.0810547
					c4.3398438,0,9.0649414-1.8320313,11.6206055-5.8818359l0.7714844,0.4814453
					c-2.7485352,4.3886719-7.8110352,6.3652344-12.3920898,6.3652344c-8.0039063,0-13.7900391-8.0039063-13.7900391-19.0458984
					V28.9980469c0-1.0605469-0.434082-1.6875-1.7358398-1.6875h-7.1845703V26.3461914z"/>
				<path fill="#FFFFFF" stroke="#FFFFFF" stroke-width="2" stroke-miterlimit="10" d="M224.6369629,74.8046875h1.6875v0.7236328
					h-19.2871094v-0.7236328h1.9296875c6.6054688,0,7.2324219-1.2529297,7.2324219-2.6513672v-43.637207
					c0-1.7841797-1.3496094-2.4111328-5.0625-2.4111328h-1.2070313v-0.7231445h1.2070313l6.2675781-0.1445313v46.9160156
					C217.404541,73.5517578,218.0314941,74.8046875,224.6369629,74.8046875z M216.6818848,7.059082
					c1.0117188,0,1.9277344,0.8676758,1.9277344,1.9287109c0,1.0126953-0.8671875,1.9287109-1.9277344,1.9287109
					c-1.0136719,0-1.9296875-0.8676758-1.9296875-1.9287109C214.7521973,7.9750977,215.6213379,7.059082,216.6818848,7.059082z"/>
				<path fill="#FFFFFF" stroke="#FFFFFF" stroke-width="2" stroke-miterlimit="10" d="M271.3127441,95.5390625
					c0,1.3984375,0.1445313,2.4101563,6.75,2.4101563h0.4824219v0.7236328h-17.1171875v-0.7236328h1.4472656
					c6.6054688,0,7.2324219-1.0117188,7.2324219-2.4101563V67.1386719c0-1.2539063-0.1933594-1.7841797-0.4824219-1.7841797
					c-0.3378906,0-0.8203125,0.578125-1.3027344,1.3496094c-3.5195313,5.4970703-9.1601563,9.0654297-16.1523438,9.0654297
					c-12.3925781,0-21.3613281-10.65625-21.3613281-25.3144531s8.7773438-25.3144531,20.8789063-25.3144531
					c6.2207031,0,12.5371094,2.796875,18.4199219,7.1362305l0.2402344-6.8950195h0.9648438V95.5390625z M251.6877441,26.1049805
					c-11.4277344,0-19.671875,10.222168-19.671875,24.3500977s8.4863281,24.3496094,20.1542969,24.3496094
					c8.7265625,0,15.3339844-5.7373047,17.9375-14.1757813V33.4824219
					C264.1291504,28.9501953,257.810791,26.1049805,251.6877441,26.1049805z"/>
				<path fill="#FFFFFF" stroke="#FFFFFF" stroke-width="2" stroke-miterlimit="10" d="M278.5432129,25.3818359h1.2050781
					l6.2695313-0.1445313v36.8867188c0,8.1484375,4.9667969,12.5361328,14.7050781,12.5361328
					c11.3808594,0,22.421875-13.0185547,22.421875-27.0019531V28.5161133c0-1.7841797-1.3496094-2.4111328-5.0625-2.4111328
					h-1.2050781v-0.7231445h1.2050781l6.2675781-0.1445313v38.2851563l0.4335938,4.8212891
					c0.3378906,3.5683594,1.6894531,6.4130859,3.1347656,6.4609375l4.6289063-0.7714844l0.1933594,0.9648438l-4.6777344,0.7714844
					h-0.0957031c-2.5078125,0-4.0507813-3.7607422-4.3886719-7.3291016l-0.4335938-4.8701172v-4.8701172
					c0-0.8193359-0.0957031-1.4951172-0.3378906-1.4951172c-0.1914063,0-0.4335938,0.3378906-0.7714844,1.2060547
					c-3.8085938,9.7402344-12.2949219,17.3583984-21.3125,17.3583984c-10.3183594,0-15.9101563-4.7255859-15.9101563-13.5009766
					V28.5161133c0-1.7841797-1.3515625-2.4111328-5.0644531-2.4111328h-1.2050781V25.3818359z"/>
				<path fill="#FFFFFF" stroke="#FFFFFF" stroke-width="2" stroke-miterlimit="10" d="M338.2365723,50.4550781
					c0,14.0800781,9.0175781,24.3496094,21.9394531,24.3496094c10.8964844,0,17.5507813-4.7246094,21.1679688-11.1376953
					l0.8671875,0.4814453c-3.7597656,6.703125-10.8496094,11.6210938-22.0351563,11.6210938
					c-13.5488281,0-23.1445313-10.8007813-23.1445313-25.3144531v-1.0126953
					c0.4335938-14.2241211,10.3183594-24.3017578,23.6269531-24.3017578c13.7890625,0,22.6621094,10.3671875,22.6621094,24.3500977
					c0,0.3374023-0.2890625,0.4819336-0.4824219,0.4819336h-44.6015625V50.4550781z M381.826416,45.7294922
					c0-0.5302734-0.0488281-1.012207-0.1445313-1.4462891c-1.8808594-10.7524414-9.5488281-18.1782227-21.0234375-18.1782227
					c-12.1503906,0-21.7949219,8.96875-22.3730469,22.9038086h41.3710938
					C381.3439941,49.0087891,381.826416,47.3208008,381.826416,45.7294922z"/>
			</g>
			<g>
				<path fill="#FFFFFF" stroke="#FFFFFF" stroke-width="2" stroke-miterlimit="10" d="M41.9699707,43.1083984
					c0,1.0185547-0.9296875,1.9926758-2.1254883,1.9926758c-1.0185547,0-2.0371094-0.9741211-2.0371094-1.9926758
					c0-1.1958008,0.9746094-2.1254883,2.0371094-2.1254883C41.0402832,40.9829102,41.9699707,41.9125977,41.9699707,43.1083984z"/>
			</g>
			<g>
				<path fill="#FFFFFF" stroke="#FFFFFF" stroke-width="2" stroke-miterlimit="10" d="M42.0368652,63.0068359
					c0,1.0185547-0.9296875,1.9921875-2.1254883,1.9921875c-1.0185547,0-2.0371094-0.9736328-2.0371094-1.9921875
					c0-1.1953125,0.9741211-2.1259766,2.0371094-2.1259766C41.1071777,60.8808594,42.0368652,61.8115234,42.0368652,63.0068359z"/>
			</g>
		</g>
		
			<rect x="30.5383301" y="3.0527344" fill="#FFFFFF" stroke="#FFFFFF" stroke-miterlimit="10" width="1.1352539" height="72.2763672"/>
	</g>
</g>
<g id="Capa_1" display="none">
	<g id="Capa_2">
		<rect x="-141.4997559" y="-213.5" display="inline" width="764" height="464"/>
	</g>
	<g id="Capa_1_1_" display="inline">
		<g>
			<g>
				<g enable-background="new    ">
					<path fill="#FFFFFF" stroke="#FFFFFF" stroke-width="2" stroke-miterlimit="10" d="M52.3898926,1.4760742
						c20.6386719,0,27.7451172,15.5273438,27.7451172,25.3110352c0,9.9785156-7.3017578,25.3115234-27.7451172,25.3115234
						H33.1623535v19.9570313c0,1.4111328,0.6328125,2.6767578,7.3017578,2.6767578h1.703125v0.7304688H22.6975098v-0.7304688
						h1.9472656c6.6679688,0,7.3007813-1.265625,7.3007813-2.6767578V4.6401367c0-1.5092773-0.8759766-2.434082-7.3007813-2.434082
						h-1.9472656V1.4760742H52.3898926z M52.2434082,51.125c19.8603516,0,26.6748047-14.7490234,26.6748047-24.3378906
						c0-9.394043-6.6201172-24.3374023-26.6748047-24.3374023H33.1623535V51.125H52.2434082z"/>
					<path fill="#FFFFFF" stroke="#FFFFFF" stroke-width="2" stroke-miterlimit="10" d="M123.701416,40.3681641v23.65625
						l0.7792969,4.6240234c0.6816406,4.0888672,1.6064453,5.7919922,2.96875,5.8408203l5.2089844-0.4863281l0.0966797,0.9736328
						l-5.3056641,0.7294922h-0.0488281c-2.3847656,0-3.5039063-2.9199219-4.1367188-6.8632813
						c-0.2431641-1.5087891-0.7792969-4.3808594-0.7792969-4.7695313v-1.0712891
						c0-0.8759766-0.1455078-1.3144531-0.3408203-1.3144531c-0.1943359,0-0.4375,0.3408203-0.7294922,1.0224609
						c-3.359375,7.2041016-10.6113281,12.9960938-19.3730469,12.9960938c-11.0009766,0-18.9833984-5.4023438-18.9833984-12.8984375
						c0-9.3457031,9.0048828-12.6074219,18.9345703-13.6298828c6.0361328-0.6328125,18.4482422-1.0703125,20.2490234-6.9599609
						c0.1464844-0.5361328,0.2431641-1.0712891,0.2431641-1.5576172v-0.2919922
						c-0.0488281-8.5185547-6.0351563-14.7978516-14.6513672-14.7978516c-9.734375,0-17.6201172,4.3320313-17.6201172,9.6865234
						c0,0.6328125-0.3896484,1.0224609-1.0224609,1.0224609s-1.0224609-0.3896484-1.0224609-1.0224609
						c0-5.8896484,8.7617188-10.659668,19.5195313-10.659668C116.9846191,24.597168,123.701416,31.2167969,123.701416,40.3681641z
						 M102.0900879,50.1513672c-9.8330078,1.0224609-17.8154297,4.1376953-17.8154297,12.65625
						c0,6.9111328,7.4472656,11.9248047,17.7666016,11.9248047c11.5361328,0,20.4433594-10.6113281,20.4433594-20.9296875
						v-9.7841797C119.223877,49.421875,107.4445801,49.6162109,102.0900879,50.1513672z"/>
					<path fill="#FFFFFF" stroke="#FFFFFF" stroke-width="2" stroke-miterlimit="10" d="M170.7727051,33.0664063
						c-0.7304688,0-1.2167969-0.4863281-1.2167969-1.1679688c0-3.7480469-1.5576172-6.328125-5.6464844-6.328125
						c-9.7841797,0-17.0849609,10.7089844-17.0849609,22.8779297v23.6074219c0,1.4111328,0.6328125,2.6767578,7.3007813,2.6767578
						h2.6777344v0.7304688h-20.4443359v-0.7304688h1.9472656c6.6689453,0,7.3017578-1.265625,7.3017578-2.6767578V28.0039063
						c0-1.8007813-1.3632813-2.4335938-5.1113281-2.4335938h-1.2167969V24.840332h1.2167969l6.328125-0.1459961v16.0625
						c2.3359375-9.0537109,8.7607422-16.159668,17.0849609-16.159668c4.5263672,0,8.0800781,2.9692383,8.0800781,7.3012695
						C171.989502,32.5800781,171.5021973,33.0664063,170.7727051,33.0664063z"/>
					<path fill="#FFFFFF" stroke="#FFFFFF" stroke-width="2" stroke-miterlimit="10" d="M176.2736816,25.8134766h4.3808594
						c4.234375,0,4.8671875-0.8271484,4.8671875-5.9868164v-8.6157227h0.9736328v12.9477539
						c0,1.0708008,0.4384766,1.6547852,1.7519531,1.6547852h23.0722656v0.9736328h-23.0722656
						c-1.3134766,0-1.7519531,0.6328125-1.7519531,1.7041016v27.9882813c0,10.6113281,5.3544922,18.2529297,12.7041016,18.2529297
						c4.3808594,0,9.1513672-1.8496094,11.7304688-5.9384766l0.7792969,0.4873047
						c-2.7744141,4.4296875-7.8857422,6.4248047-12.5097656,6.4248047c-8.0800781,0-13.9208984-8.0800781-13.9208984-19.2265625
						V28.4912109c0-1.0712891-0.4384766-1.7041016-1.7529297-1.7041016h-7.2519531V25.8134766z"/>
					<path fill="#FFFFFF" stroke="#FFFFFF" stroke-width="2" stroke-miterlimit="10" d="M234.9279785,74.7324219h1.7041016
						v0.7304688H217.161377v-0.7304688h1.9472656c6.6689453,0,7.3017578-1.265625,7.3017578-2.6767578V28.0039063
						c0-1.8007813-1.3632813-2.4335938-5.1113281-2.4335938h-1.2167969V24.840332h1.2167969l6.328125-0.1459961v47.3613281
						C227.6271973,73.4667969,228.2600098,74.7324219,234.9279785,74.7324219z M226.8967285,6.34375
						c1.0224609,0,1.9472656,0.8759766,1.9472656,1.9467773c0,1.0224609-0.8769531,1.9472656-1.9472656,1.9472656
						c-1.0224609,0-1.9472656-0.8764648-1.9472656-1.9472656C224.9494629,7.2685547,225.8254395,6.34375,226.8967285,6.34375z"/>
					<path fill="#FFFFFF" stroke="#FFFFFF" stroke-width="2" stroke-miterlimit="10" d="M282.0490723,95.6630859
						c0,1.4121094,0.1455078,2.4335938,6.8144531,2.4335938h0.4863281v0.7304688h-17.2792969v-0.7304688h1.4599609
						c6.6689453,0,7.3017578-1.0214844,7.3017578-2.4335938V66.9931641c0-1.265625-0.1953125-1.8007813-0.4873047-1.8007813
						c-0.3408203,0-0.8271484,0.5839844-1.3144531,1.3632813c-3.5527344,5.5488281-9.2480469,9.1503906-16.3056641,9.1503906
						c-12.5097656,0-21.5634766-10.7568359-21.5634766-25.5546875c0-14.796875,8.8583984-25.5541992,21.0761719-25.5541992
						c6.2792969,0,12.65625,2.8227539,18.5947266,7.2036133l0.2431641-6.9604492h0.9736328V95.6630859z M262.2375488,25.5703125
						c-11.5361328,0-19.859375,10.3193359-19.859375,24.5810547s8.5664063,24.5810547,20.3466797,24.5810547
						c8.8095703,0,15.4785156-5.7919922,18.1074219-14.3105469V33.0175781
						C274.7961426,28.4423828,268.4191895,25.5703125,262.2375488,25.5703125z"/>
					<path fill="#FFFFFF" stroke="#FFFFFF" stroke-width="2" stroke-miterlimit="10" d="M289.3498535,24.840332h1.2167969
						l6.328125-0.1459961v37.2363281c0,8.2265625,5.0136719,12.65625,14.8457031,12.65625
						c11.4873047,0,22.6347656-13.1425781,22.6347656-27.2587891V28.0039063c0-1.8007813-1.3632813-2.4335938-5.1113281-2.4335938
						h-1.2167969V24.840332h1.2167969l6.328125-0.1459961v38.6484375l0.4375,4.8671875
						c0.3408203,3.6025391,1.7041016,6.4736328,3.1640625,6.5224609l4.6728516-0.7783203l0.1953125,0.9736328l-4.7216797,0.7783203
						h-0.0976563c-2.53125,0-4.0888672-3.796875-4.4296875-7.3984375l-0.4375-4.9160156v-4.9160156
						c0-0.828125-0.0976563-1.5097656-0.3408203-1.5097656c-0.1953125,0-0.4384766,0.3408203-0.7792969,1.2167969
						c-3.8447266,9.8330078-12.4121094,17.5234375-21.5146484,17.5234375c-10.4160156,0-16.0625-4.7695313-16.0625-13.6289063
						V28.0039063c0-1.8007813-1.3632813-2.4335938-5.1113281-2.4335938h-1.2167969V24.840332z"/>
					<path fill="#FFFFFF" stroke="#FFFFFF" stroke-width="2" stroke-miterlimit="10" d="M349.6125488,50.1513672
						c0,14.2138672,9.1025391,24.5810547,22.1474609,24.5810547c11.0009766,0,17.7177734-4.7695313,21.3681641-11.2441406
						l0.8759766,0.4873047c-3.7958984,6.765625-10.9511719,11.7304688-22.2441406,11.7304688
						c-13.6777344,0-23.3642578-10.9033203-23.3642578-25.5546875v-1.0214844
						c0.4375-14.359375,10.4160156-24.5327148,23.8505859-24.5327148c13.921875,0,22.8779297,10.465332,22.8779297,24.5805664
						c0,0.3408203-0.2919922,0.4873047-0.4873047,0.4873047h-45.0244141V50.1513672z M393.6154785,45.3818359
						c0-0.5361328-0.0488281-1.0224609-0.1464844-1.4609375c-1.8984375-10.8544922-9.6376953-18.3505859-21.2226563-18.3505859
						c-12.265625,0-22.0009766,9.0537109-22.5849609,23.1210938h41.7636719
						C393.1281738,48.6914063,393.6154785,46.9873047,393.6154785,45.3818359z"/>
				</g>
				<line fill="none" stroke="#FFFFFF" stroke-miterlimit="10" x1="37.5539551" y1="2.296875" x2="37.5539551" y2="75.4628906"/>
			</g>
			
				<rect x="36.9611816" y="2.296875" fill="#FFFFFF" stroke="#FFFFFF" stroke-miterlimit="10" width="1.1445313" height="72.9648438"/>
			<circle fill="#FFFFFF" stroke="#FFFFFF" stroke-miterlimit="10" cx="45.4143066" cy="44.7910156" r="1.9189453"/>
			<circle fill="#FFFFFF" stroke="#FFFFFF" stroke-miterlimit="10" cx="45.4143066" cy="60.8095703" r="1.9189453"/>
		</g>
	</g>
</g>
</svg>
